<svg version="1.1" id="Layer_1" xmlns="http://www.w3.org/2000/svg" xmlns:xlink="http://www.w3.org/1999/xlink" x="0px" y="0px"
	 width="100%" viewBox="0 0 500 500" enable-background="new 0 0 500 500" xml:space="preserve">
<path fill="#000000" opacity="1.000000" stroke="none" 
	d="
M300.000000,501.000000 
	C200.000031,501.000000 100.500046,501.000000 1.000053,501.000000 
	C1.000036,334.333405 1.000036,167.666794 1.000018,1.000143 
	C167.666565,1.000095 334.333130,1.000095 500.999756,1.000048 
	C500.999847,167.666519 500.999847,334.333038 500.999939,500.999786 
	C434.166656,501.000000 367.333344,501.000000 300.000000,501.000000 
M77.874344,38.339077 
	C75.183380,39.999195 72.434944,41.573555 69.810226,43.332531 
	C39.377781,63.727112 26.024437,100.174370 37.407612,133.361755 
	C46.798374,160.740326 66.803795,178.043869 93.595558,186.704727 
	C114.432823,193.440689 136.124069,197.500565 157.320709,203.179352 
	C163.974594,204.962006 170.823578,207.238052 176.582748,210.873337 
	C187.158905,217.549149 186.547791,230.250031 176.105118,237.126144 
	C168.632614,242.046494 160.166885,243.554565 151.521393,244.546432 
	C123.960846,247.708359 99.744202,242.048752 82.538971,218.201675 
	C76.946159,210.449829 71.438744,211.755890 64.925896,216.126053 
	C54.694332,222.991501 44.632965,230.111450 34.526878,237.162827 
	C22.464108,245.579483 22.015898,248.504120 31.228357,259.974335 
	C42.545872,274.065460 57.694431,282.599274 74.226204,288.882172 
	C101.885201,299.394012 130.545654,303.096680 160.040695,301.134216 
	C180.361496,299.782135 199.879639,295.561035 218.007889,286.005066 
	C256.777679,265.568268 270.539459,227.762344 260.066620,188.583603 
	C252.175095,159.061478 230.924988,142.409531 202.693314,134.191742 
	C179.869614,127.548126 156.663681,122.227219 133.744156,115.896492 
	C128.083008,114.332802 122.385918,111.834793 117.572182,108.510887 
	C109.870346,103.192764 110.188576,92.924416 117.649757,87.234375 
	C120.145905,85.330765 122.835594,83.144127 125.764412,82.429520 
	C149.421646,76.657310 172.349930,75.928627 192.031631,93.723267 
	C194.007492,95.509682 195.817444,97.478256 197.740829,99.324341 
	C202.705444,104.089470 204.805954,104.274345 210.284149,100.323921 
	C222.036713,91.848938 233.780579,83.361732 245.499420,74.840240 
	C251.921173,70.170601 252.368973,67.254761 247.593460,60.783813 
	C238.603439,48.602119 226.379135,40.698689 212.613022,35.079887 
	C188.023224,25.043276 162.424149,21.205793 135.904922,22.767109 
	C115.697853,23.956797 96.435387,28.336521 77.874344,38.339077 
M402.500061,410.162689 
	C389.338501,410.162628 376.176971,410.168274 363.015411,410.160431 
	C355.145172,410.155731 354.949036,409.958313 354.948639,401.956635 
	C354.945343,338.147552 354.947113,274.338501 354.944336,210.529434 
	C354.944244,208.863800 354.961823,207.195602 354.880371,205.533051 
	C354.669037,201.218719 352.530151,198.594940 348.068085,198.583313 
	C325.078156,198.523422 302.088043,198.522797 279.098053,198.560287 
	C274.721802,198.567413 272.358765,200.980072 272.026459,205.312485 
	C271.873810,207.302338 271.838898,209.305222 271.838684,211.302200 
	C271.829926,293.104431 271.830536,374.906647 271.835327,456.708862 
	C271.835419,458.540558 271.883575,460.372650 271.932770,462.203918 
	C272.060730,466.966187 274.509003,469.593048 279.252991,469.963440 
	C281.408508,470.131714 283.579132,470.160126 285.742920,470.160706 
	C325.061310,470.171692 364.379669,470.168945 403.698059,470.168793 
	C424.856689,470.168701 446.015472,470.219666 467.173828,470.142029 
	C475.540466,470.111328 477.937775,467.611908 477.954285,459.384399 
	C477.979340,446.889191 477.962067,434.393921 477.960419,421.898682 
	C477.959076,411.767365 476.344299,410.171875 465.976349,410.166260 
	C445.150940,410.155029 424.325531,410.162781 402.500061,410.162689 
z"/>
<path fill="#3695ff" opacity="1.000000" stroke="none" 
	d="
M78.199028,38.166962 
	C96.435387,28.336521 115.697853,23.956797 135.904922,22.767109 
	C162.424149,21.205793 188.023224,25.043276 212.613022,35.079887 
	C226.379135,40.698689 238.603439,48.602119 247.593460,60.783813 
	C252.368973,67.254761 251.921173,70.170601 245.499420,74.840240 
	C233.780579,83.361732 222.036713,91.848938 210.284149,100.323921 
	C204.805954,104.274345 202.705444,104.089470 197.740829,99.324341 
	C195.817444,97.478256 194.007492,95.509682 192.031631,93.723267 
	C172.349930,75.928627 149.421646,76.657310 125.764412,82.429520 
	C122.835594,83.144127 120.145905,85.330765 117.649757,87.234375 
	C110.188576,92.924416 109.870346,103.192764 117.572182,108.510887 
	C122.385918,111.834793 128.083008,114.332802 133.744156,115.896492 
	C156.663681,122.227219 179.869614,127.548126 202.693314,134.191742 
	C230.924988,142.409531 252.175095,159.061478 260.066620,188.583603 
	C270.539459,227.762344 256.777679,265.568268 218.007889,286.005066 
	C199.879639,295.561035 180.361496,299.782135 160.040695,301.134216 
	C130.545654,303.096680 101.885201,299.394012 74.226204,288.882172 
	C57.694431,282.599274 42.545872,274.065460 31.228357,259.974335 
	C22.015898,248.504120 22.464108,245.579483 34.526878,237.162827 
	C44.632965,230.111450 54.694332,222.991501 64.925896,216.126053 
	C71.438744,211.755890 76.946159,210.449829 82.538971,218.201675 
	C99.744202,242.048752 123.960846,247.708359 151.521393,244.546432 
	C160.166885,243.554565 168.632614,242.046494 176.105118,237.126144 
	C186.547791,230.250031 187.158905,217.549149 176.582748,210.873337 
	C170.823578,207.238052 163.974594,204.962006 157.320709,203.179352 
	C136.124069,197.500565 114.432823,193.440689 93.595558,186.704727 
	C66.803795,178.043869 46.798374,160.740326 37.407612,133.361755 
	C26.024437,100.174370 39.377781,63.727112 69.810226,43.332531 
	C72.434944,41.573555 75.183380,39.999195 78.199028,38.166962 
z"/>
<path fill="#FEFEFE" opacity="1.000000" stroke="none" 
	d="
M403.000092,410.162689 
	C424.325531,410.162781 445.150940,410.155029 465.976349,410.166260 
	C476.344299,410.171875 477.959076,411.767365 477.960419,421.898682 
	C477.962067,434.393921 477.979340,446.889191 477.954285,459.384399 
	C477.937775,467.611908 475.540466,470.111328 467.173828,470.142029 
	C446.015472,470.219666 424.856689,470.168701 403.698059,470.168793 
	C364.379669,470.168945 325.061310,470.171692 285.742920,470.160706 
	C283.579132,470.160126 281.408508,470.131714 279.252991,469.963440 
	C274.509003,469.593048 272.060730,466.966187 271.932770,462.203918 
	C271.883575,460.372650 271.835419,458.540558 271.835327,456.708862 
	C271.830536,374.906647 271.829926,293.104431 271.838684,211.302200 
	C271.838898,209.305222 271.873810,207.302338 272.026459,205.312485 
	C272.358765,200.980072 274.721802,198.567413 279.098053,198.560287 
	C302.088043,198.522797 325.078156,198.523422 348.068085,198.583313 
	C352.530151,198.594940 354.669037,201.218719 354.880371,205.533051 
	C354.961823,207.195602 354.944244,208.863800 354.944336,210.529434 
	C354.947113,274.338501 354.945343,338.147552 354.948639,401.956635 
	C354.949036,409.958313 355.145172,410.155731 363.015411,410.160431 
	C376.176971,410.168274 389.338501,410.162628 403.000092,410.162689 
z"/>
</svg>
