<svg version="1.1" id="Layer_1" xmlns="http://www.w3.org/2000/svg" xmlns:xlink="http://www.w3.org/1999/xlink" x="0px" y="0px"
	 width="100%" viewBox="0 0 489 86" enable-background="new 0 0 489 86" xml:space="preserve">
<path fill="#FDFDFC" opacity="1.000000" stroke="none" 
	d="
M360.000000,87.000000 
	C241.500031,87.000000 123.500046,86.979332 5.500197,87.094414 
	C1.750829,87.098068 0.872842,86.253777 0.899996,82.499382 
	C1.089237,56.334095 1.040450,30.166626 0.934785,4.000395 
	C0.924688,1.499945 1.500550,0.936707 3.999893,0.937778 
	C164.999817,1.006764 325.999786,1.006753 486.999695,0.937853 
	C489.498016,0.936783 490.075195,1.498551 490.065247,3.999980 
	C489.959991,30.499554 489.938538,57.000042 490.085358,83.499222 
	C490.101898,86.483299 489.484222,87.092522 486.500061,87.083763 
	C444.500336,86.960487 402.500092,87.000000 360.000000,87.000000 
z"/>
<path fill="#030303" opacity="1.000000" stroke="none" 
	d="
M271.910156,70.048332 
	C260.533783,54.083057 261.446289,30.062326 274.086151,17.650711 
	C284.965240,6.968080 298.271179,5.331318 312.063721,10.150938 
	C326.434784,15.172713 332.683655,26.861261 333.739990,41.366230 
	C334.715942,54.767525 331.644073,67.009308 320.212158,75.510521 
	C305.900726,86.153023 284.272980,83.677803 271.910156,70.048332 
z"/>
<path fill="#030303" opacity="1.000000" stroke="none" 
	d="
M416.780396,61.056938 
	C412.645142,48.830585 412.751160,37.043541 418.284698,25.758972 
	C424.785095,12.502708 438.913025,5.932664 454.816193,8.157577 
	C469.235931,10.174952 480.244904,20.811035 482.963593,35.361851 
	C484.846954,45.441875 484.357452,55.337177 479.523163,64.529930 
	C472.723846,77.459320 461.306610,82.466217 447.234619,81.895767 
	C433.033081,81.320068 422.545044,74.879433 416.780396,61.056938 
z"/>
<path fill="#040404" opacity="1.000000" stroke="none" 
	d="
M340.000397,47.813377 
	C339.824677,43.169449 340.131073,39.039894 340.999512,34.937607 
	C346.290588,9.945424 377.140198,-0.975419 396.999695,15.138271 
	C401.246521,18.584087 404.204895,22.925453 405.854645,28.145704 
	C406.709534,30.850666 406.243805,32.565750 402.924133,32.913002 
	C398.627197,33.362492 394.357086,34.107506 390.095795,34.843384 
	C387.729950,35.251934 386.624542,34.643650 385.844025,32.109699 
	C383.725555,25.232157 380.032928,22.603584 374.009857,22.965321 
	C368.710358,23.283600 365.212708,26.907568 364.019073,33.660103 
	C362.495300,42.280449 362.329773,50.908665 365.061737,59.340721 
	C366.463776,63.668079 369.662994,66.252052 374.220032,66.740646 
	C378.223816,67.169899 381.880981,66.174858 384.453400,62.818768 
	C385.433167,61.540482 386.759918,60.022552 386.005402,58.322475 
	C385.240784,56.599560 383.348145,57.585316 381.961334,57.446636 
	C380.476898,57.298199 378.964844,57.359295 377.468170,57.416405 
	C375.449493,57.493431 374.558380,56.690533 374.280457,54.569164 
	C373.038544,45.089890 373.723663,44.210949 383.052765,44.293995 
	C389.214935,44.348850 395.379730,44.560902 401.538086,44.438507 
	C405.695801,44.355865 407.537537,45.722424 407.386627,50.216579 
	C407.096100,58.867550 407.350159,67.535690 407.260101,76.195496 
	C407.242920,77.846535 408.230255,80.314476 405.712982,80.832581 
	C403.357330,81.317429 400.268677,81.815529 398.990356,79.055176 
	C396.068176,72.744904 393.361023,74.480850 388.719330,77.778969 
	C374.024780,88.220001 350.523285,79.763908 343.040436,61.845940 
	C341.231293,57.513836 340.259735,52.972492 340.000397,47.813377 
z"/>
<path fill="#3695ff" opacity="1.000000" stroke="none" 
	d="
M85.038147,8.858536 
	C99.352264,8.858777 113.172005,8.968563 126.987869,8.786142 
	C130.667984,8.737550 131.973907,9.805035 131.885620,13.587780 
	C131.581299,26.623920 132.777847,24.746222 120.623901,24.853050 
	C114.797363,24.904264 108.947800,25.174646 103.150055,24.762928 
	C98.529915,24.434837 97.140610,26.226330 97.767982,30.454483 
	C97.913048,31.432125 97.845757,32.452438 97.784088,33.447407 
	C97.627502,35.973793 98.693474,37.053333 101.299644,36.979496 
	C105.791084,36.852242 110.296280,37.107124 114.781471,36.897312 
	C118.109192,36.741642 119.124718,38.069798 119.038567,41.271271 
	C118.670204,54.960537 121.061401,52.420830 107.896706,52.708290 
	C106.399055,52.740993 104.868324,52.910660 103.407532,52.676373 
	C98.659790,51.914894 97.455353,54.019436 97.702713,58.488956 
	C98.124649,66.113060 97.008865,64.929359 104.524719,64.992088 
	C112.348991,65.057388 120.177078,65.130440 127.997688,64.949135 
	C131.338837,64.871689 132.838974,65.790474 132.782028,69.404060 
	C132.558319,83.597504 133.964249,80.823494 121.609535,80.962822 
	C107.959473,81.116768 94.303795,80.851280 80.656082,81.087502 
	C76.579842,81.158066 75.559158,79.697510 75.584679,75.894630 
	C75.719849,55.750816 75.645126,35.605602 75.647743,15.460876 
	C75.648598,8.870172 75.654930,8.870015 82.044914,8.858920 
	C82.877380,8.857475 83.709846,8.858630 85.038147,8.858536 
z"/>
<path fill="#3695ff" opacity="1.000000" stroke="none" 
	d="
M203.137207,56.722794 
	C202.562424,57.475662 202.098770,57.831436 202.057129,58.231163 
	C200.389908,74.237480 190.741272,80.518318 174.922501,81.914383 
	C174.756851,81.928993 174.589828,81.927559 174.423462,81.934486 
	C150.045975,82.950333 140.082504,73.453926 140.014465,49.089489 
	C139.981461,37.268333 140.132904,25.444925 139.935333,13.626976 
	C139.872833,9.888372 141.104706,8.570107 144.809219,8.801188 
	C148.955490,9.059828 153.144867,9.075789 157.288406,8.796122 
	C160.950531,8.548946 162.226608,9.680258 162.157028,13.512210 
	C161.930389,25.995319 162.075302,38.485134 162.071609,50.972366 
	C162.070877,53.471363 162.139709,55.944122 162.772705,58.400845 
	C164.156891,63.773045 166.838028,66.085350 172.170776,66.294518 
	C178.016769,66.523811 181.519852,64.168053 183.251099,59.033962 
	C184.016678,56.763630 184.054520,54.460106 184.056000,52.131493 
	C184.064178,39.311275 184.170883,26.489536 183.994003,13.671768 
	C183.943314,9.997982 185.059250,8.461061 188.824875,8.824431 
	C193.104080,9.237357 197.454590,8.289837 201.923981,9.787878 
	C203.412369,11.520752 203.379669,13.222854 203.386490,14.884299 
	C203.443130,28.704853 203.385132,42.525608 203.137207,56.722794 
z"/>
<path fill="#3695ff" opacity="1.000000" stroke="none" 
	d="
M62.469051,22.246483 
	C60.687843,23.540142 59.053757,24.461052 57.761467,25.730045 
	C54.243031,29.185045 51.324730,29.562546 47.344517,25.801136 
	C43.152317,21.839388 37.471420,22.433958 32.157055,23.625685 
	C30.010174,24.107115 27.966837,25.178762 27.910151,27.847054 
	C27.852959,30.539110 29.871264,31.570879 32.014179,32.176811 
	C39.046455,34.165268 46.193047,35.786606 53.139339,38.032627 
	C61.890293,40.862171 67.071922,47.097713 67.775360,56.321262 
	C68.483345,65.604622 64.603859,72.794685 56.403416,77.451057 
	C52.596813,79.612518 48.467888,80.810852 44.140980,81.428696 
	C34.002808,82.876350 24.227119,81.631912 14.916256,77.366676 
	C12.678129,76.341415 10.527694,74.939575 8.653741,73.339806 
	C3.389805,68.846046 3.538744,67.332230 9.206734,63.377552 
	C10.025311,62.806412 10.932060,62.334663 11.662024,61.668022 
	C15.481023,58.180309 18.504875,57.792446 22.364405,62.329193 
	C26.778591,67.517921 37.095036,68.562225 43.345028,65.560463 
	C45.224033,64.657997 46.905056,63.417824 46.730099,61.095787 
	C46.562576,58.872421 44.979122,57.478855 42.949181,56.908722 
	C37.994743,55.517185 32.999474,54.267956 28.006990,53.015884 
	C23.957775,52.000381 20.030830,50.761459 16.519136,48.376148 
	C3.836195,39.761265 3.533848,22.863935 15.938269,13.829288 
	C27.114229,5.689380 48.947124,5.826990 59.800591,14.400752 
	C61.956203,16.103590 66.470085,17.704948 62.469051,22.246483 
z"/>
<path fill="#030303" opacity="1.000000" stroke="none" 
	d="
M203.596649,10.379887 
	C210.416641,7.608248 217.211227,9.131542 223.900101,9.053163 
	C226.440811,9.023390 225.680191,11.837968 225.686218,13.507430 
	C225.742249,29.000025 225.878250,44.495602 225.615250,59.983925 
	C225.543762,64.193756 226.737488,65.308540 230.858063,65.119781 
	C238.505127,64.769508 246.181808,65.124283 253.841721,64.967735 
	C256.887665,64.905495 258.287994,65.561691 258.362427,69.043991 
	C258.618103,81.003807 258.753540,81.000923 246.677750,81.000900 
	C233.850372,81.000877 221.021667,80.898598 208.196518,81.067947 
	C204.705353,81.114052 203.450348,79.975975 203.567719,76.493736 
	C203.764053,70.669930 203.612961,64.834404 203.562393,58.543106 
	C202.654343,42.329475 202.805984,26.573311 203.596649,10.379887 
z"/>
<path fill="#BBA8A1" opacity="1.000000" stroke="none" 
	d="
M203.542389,9.961818 
	C203.831192,25.691294 203.834824,41.438656 203.677551,57.634209 
	C203.167358,58.059200 202.973038,57.873596 202.881485,57.312489 
	C201.096130,48.261856 202.270813,39.331944 202.023254,30.447977 
	C201.843384,23.992811 202.002945,17.528187 202.072510,10.626066 
	C202.508331,10.116138 202.882767,10.047921 203.542389,9.961818 
z"/>
<path fill="#FAFAFA" opacity="1.000000" stroke="none" 
	d="
M287.903229,35.135246 
	C288.389404,31.720482 289.177307,28.845428 291.060577,26.410130 
	C293.587524,23.142458 297.098694,22.531176 300.921478,22.981993 
	C305.048004,23.468628 307.636993,26.082699 308.713745,29.790937 
	C311.552338,39.566788 311.637939,49.473408 309.078857,59.341724 
	C307.778656,64.355637 304.280304,66.728386 299.200439,66.839310 
	C293.861542,66.955902 290.435333,64.620430 288.849396,59.291073 
	C286.530396,51.498383 286.708862,43.532177 287.903229,35.135246 
z"/>
<path fill="#FAFAFA" opacity="1.000000" stroke="none" 
	d="
M460.754700,48.688347 
	C460.335938,52.773567 460.187836,56.441906 458.960052,59.936256 
	C457.321747,64.599068 453.940857,66.816658 449.101807,66.831833 
	C444.315033,66.846848 440.488281,64.910057 439.109283,60.159771 
	C436.120422,49.863792 436.151306,39.445709 439.470856,29.235735 
	C440.889404,24.872671 444.414581,22.822115 449.143005,22.847286 
	C453.930939,22.872772 457.065613,25.201832 458.620270,29.518976 
	C460.794769,35.557293 460.896423,41.895817 460.754700,48.688347 
z"/>
</svg>
