<?xml version="1.0" encoding="iso-8859-1"?>
<!-- Generator: Adobe Illustrator 16.0.0, SVG Export Plug-In . SVG Version: 6.00 Build 0)  -->
<!DOCTYPE svg PUBLIC "-//W3C//DTD SVG 1.1//EN" "http://www.w3.org/Graphics/SVG/1.1/DTD/svg11.dtd">
<svg version="1.1" id="Capa_1" xmlns="http://www.w3.org/2000/svg" xmlns:xlink="http://www.w3.org/1999/xlink" x="0px" y="0px"
	 width="46px" height="46px" viewBox="0 0 106.048 106.047" style="enable-background:new 0 0 106.048 106.047;"
	 xml:space="preserve">
<g>
	<path style="fill:#f26835;" d="M47.965,20.495L29.528,33.898V18.962h4.438v-6.592h7.537V6.654c0-1.468,5.158-2.677,11.521-2.677
		c6.364,0,11.521,1.209,11.521,2.677v5.717h7.534v6.592h4.433v14.921L58.083,20.495C55.303,18.473,50.748,18.473,47.965,20.495z
		 M22.084,50.818c-1.056-3.272,0.344-7.604,3.133-9.618l4.311-3.133l18.437-13.401c1.051-0.764,2.371-1.139,3.733-1.336v44.715
		c0,0.73,0.593,1.326,1.325,1.326c0.735,0,1.326-0.596,1.326-1.326V23.33c1.361,0.191,2.682,0.567,3.733,1.331l18.429,13.388
		l4.318,3.146c2.786,2.019,4.189,6.346,3.133,9.618l-10.62,26.988c-0.828,0.352-1.719,0.58-2.734,0.596
		c-3.572-0.062-5.934-2.123-7.818-6.722c-0.021-0.077-0.052-0.114-0.083-0.187c-0.011-0.041-0.041-0.052-0.052-0.108h-0.011
		c-0.187-0.279-0.466-0.466-0.781-0.466c-0.316,0-0.586,0.187-0.771,0.466c-0.062,0.108-0.114,0.218-0.146,0.347
		c-1.896,4.619-4.298,6.686-7.948,6.686h-0.025c-3.688,0-6.085-2.076-7.993-6.737c-0.021-0.077-0.062-0.114-0.096-0.187
		c-0.01-0.041-0.026-0.052-0.042-0.108l0,0c-0.197-0.279-0.471-0.466-0.784-0.466c-0.324,0-0.583,0.187-0.774,0.466
		c-0.06,0.108-0.111,0.218-0.142,0.347c-1.867,4.521-4.223,6.566-7.749,6.654c-0.992-0.026-1.864-0.243-2.688-0.585L22.084,50.818z
		 M58.44,40.203c0,1.155,0.937,2.09,2.092,2.09c1.149,0,2.081-0.935,2.081-2.09c0-1.149-0.932-2.084-2.081-2.084
		C59.377,38.119,58.44,39.053,58.44,40.203z M43.587,40.203c0,1.155,0.932,2.09,2.087,2.09c1.152,0,2.084-0.935,2.084-2.09
		c0-1.149-0.932-2.084-2.084-2.084C44.519,38.119,43.587,39.053,43.587,40.203z M106.048,83.606h-0.135v18.465H0.075V83.606H0
		c3.648,0,6.066-2.061,7.969-6.68C8,76.792,8.044,76.688,8.106,76.574l0,0c0.187-0.279,0.469-0.466,0.774-0.466
		c0.334,0,0.601,0.187,0.774,0.466h0.034c0.005,0.058,0.021,0.067,0.041,0.109c0.031,0.077,0.06,0.108,0.085,0.187
		c1.903,4.67,4.306,6.736,7.985,6.736h0.016c3.648,0,6.071-2.061,7.974-6.68c0.028-0.135,0.07-0.238,0.135-0.353h0.01
		c0.173-0.279,0.45-0.466,0.779-0.466c0.324,0,0.593,0.187,0.774,0.466h0.015c0.005,0.058,0.026,0.067,0.042,0.109
		c0.034,0.077,0.06,0.108,0.08,0.187c1.877,4.562,4.23,6.627,7.768,6.716c3.526-0.089,5.882-2.134,7.749-6.654
		c0.036-0.13,0.088-0.238,0.142-0.347l0,0c0.192-0.279,0.456-0.466,0.774-0.466c0.318,0,0.587,0.187,0.784,0.466h0.005
		c0.016,0.052,0.031,0.062,0.042,0.104c0.034,0.072,0.075,0.113,0.096,0.187c1.903,4.671,4.306,6.741,7.993,6.741h0.025
		c3.646,0,6.048-2.065,7.948-6.685c0.037-0.13,0.089-0.238,0.141-0.347l0,0c0.186-0.279,0.455-0.466,0.776-0.466
		s0.601,0.187,0.787,0.466l0,0c0.021,0.052,0.047,0.062,0.057,0.104c0.031,0.072,0.062,0.113,0.083,0.187
		c1.88,4.598,4.241,6.659,7.824,6.721c3.553-0.062,5.913-2.117,7.798-6.659c0.026-0.135,0.073-0.238,0.135-0.352l0,0
		c0.187-0.279,0.456-0.466,0.777-0.466c0.331,0,0.605,0.187,0.776,0.466h0.021c0.011,0.057,0.031,0.067,0.058,0.108
		c0.021,0.078,0.046,0.108,0.077,0.187c1.896,4.671,4.303,6.736,7.984,6.736h0.021c3.655,0,6.063-2.061,7.964-6.68
		c0.031-0.135,0.077-0.238,0.14-0.352l0,0c0.187-0.279,0.461-0.466,0.782-0.466c0.326,0,0.601,0.187,0.771,0.466h0.016
		c0.021,0.057,0.03,0.067,0.062,0.108c0.011,0.078,0.047,0.108,0.062,0.187C99.969,81.535,102.371,83.606,106.048,83.606z"/>
</g>
<g>
</g>
<g>
</g>
<g>
</g>
<g>
</g>
<g>
</g>
<g>
</g>
<g>
</g>
<g>
</g>
<g>
</g>
<g>
</g>
<g>
</g>
<g>
</g>
<g>
</g>
<g>
</g>
<g>
</g>
</svg>
