<svg fill="#f26835" width="46px" height="46px" id="Layer_1" data-name="Layer 1" xmlns="http://www.w3.org/2000/svg" viewBox="0 0 64 64"><title>credit card</title><path d="M53.67,20H10.33A6.33,6.33,0,0,0,4,26.33V27a1,1,0,0,0,1,1H60V26.33A6.33,6.33,0,0,0,53.67,20Z"/><path d="M58.77,36H5.23A1.23,1.23,0,0,0,4,37.23V53.67A6.33,6.33,0,0,0,10.33,60H53.67A6.33,6.33,0,0,0,60,53.67V37.23A1.23,1.23,0,0,0,58.77,36ZM38,40h5.89A2.07,2.07,0,0,1,46,41.66,2,2,0,0,1,44,44H38.11A2.07,2.07,0,0,1,36,42.34,2,2,0,0,1,38,40Zm-8.13,7.28A6,6,0,0,1,21,51.18a6,6,0,0,1-8.88-4A6,6,0,0,1,18,40a5.94,5.94,0,0,1,3,.82,6,6,0,0,1,8.87,6.47Zm9.55,4.13A2,2,0,0,1,38,52a2,2,0,0,1-1.41-3.41,2.06,2.06,0,0,1,2.83,0,2,2,0,0,1,0,2.82ZM50,52H44.11A2.07,2.07,0,0,1,42,50.34,2,2,0,0,1,44,48h5.89A2.07,2.07,0,0,1,52,49.66,2,2,0,0,1,50,52Zm1.41-8.59a1.45,1.45,0,0,1-.3.25,1.63,1.63,0,0,1-.34.19,1.69,1.69,0,0,1-.38.11A1.65,1.65,0,0,1,50,44a2,2,0,0,1-2-2,1.72,1.72,0,0,1,0-.39,2.18,2.18,0,0,1,.11-.37,1.94,1.94,0,0,1,.19-.35,1.43,1.43,0,0,1,.25-.3,1.44,1.44,0,0,1,.3-.25,2,2,0,0,1,.35-.19,1.57,1.57,0,0,1,.37-.11,2,2,0,0,1,.78,0,1.8,1.8,0,0,1,.38.11,2.32,2.32,0,0,1,.34.19,1.44,1.44,0,0,1,.3.25A2,2,0,0,1,52,42,2,2,0,0,1,51.41,43.41Z"/><path d="M39.68,4.74,20.18,16h32.4L47.25,6.77A5.55,5.55,0,0,0,39.68,4.74Z"/></svg>
