<?xml version="1.0" encoding="iso-8859-1"?>
<!-- Generator: Adobe Illustrator 16.0.0, SVG Export Plug-In . SVG Version: 6.00 Build 0)  -->
<!DOCTYPE svg PUBLIC "-//W3C//DTD SVG 1.1//EN" "http://www.w3.org/Graphics/SVG/1.1/DTD/svg11.dtd">
<svg version="1.1" id="Capa_1" xmlns="http://www.w3.org/2000/svg" xmlns:xlink="http://www.w3.org/1999/xlink" x="0px" y="0px"
	 width="46px" height="46px" viewBox="0 0 79.536 79.536" style="enable-background:new 0 0 79.536 79.536;"
	 xml:space="preserve">
<g>
	<g>
		<path style="fill:#f26835;" d="M0,50.776h15.615c-1.038,1.388-1.665,3.086-1.665,4.961H6.258L0,54.152V50.776z M79.536,41.933
			v13.805h-6.628c0-0.197-0.026-0.383-0.042-0.58c-0.072-1.129-0.383-2.206-0.875-3.18c-1.372-2.682-4.152-4.516-7.368-4.516
			c-4.577,0-8.29,3.708-8.29,8.275H30.515c0-1.875-0.624-3.573-1.67-4.961h24.687v-28.73h13.847v3.313l4.417,13.256L79.536,41.933z
			 M68.48,38.616l-3.304-9.942h-7.735v9.942H68.48z M28.304,55.737c0,3.355-2.718,6.079-6.066,6.079
			c-3.361,0-6.077-2.734-6.077-6.079c0-3.34,2.721-6.068,6.077-6.068C25.585,49.669,28.304,52.392,28.304,55.737z M25.546,55.737
			c0-1.822-1.489-3.314-3.309-3.314c-1.838,0-3.33,1.492-3.33,3.314c0,1.844,1.491,3.313,3.33,3.313
			C24.058,59.051,25.546,57.581,25.546,55.737z M70.697,55.737c0,3.355-2.729,6.079-6.074,6.079c-3.376,0-6.079-2.734-6.079-6.079
			c0-3.34,2.724-6.068,6.079-6.068C67.968,49.669,70.697,52.392,70.697,55.737z M67.938,55.737c0-1.822-1.486-3.314-3.314-3.314
			c-1.849,0-3.313,1.492-3.313,3.314c0,1.844,1.465,3.313,3.313,3.313C66.451,59.051,67.938,57.581,67.938,55.737z M50.684,17.72H0
			v31.151h50.684V17.72z"/>
	</g>
</g>
<g>
</g>
<g>
</g>
<g>
</g>
<g>
</g>
<g>
</g>
<g>
</g>
<g>
</g>
<g>
</g>
<g>
</g>
<g>
</g>
<g>
</g>
<g>
</g>
<g>
</g>
<g>
</g>
<g>
</g>
</svg>
