<?xml version="1.0" ?><svg fill="#f26835" width="46px" height="46px" data-name="Layer 1" id="Layer_1" viewBox="0 0 512 512" xmlns="http://www.w3.org/2000/svg"><path d="M386.56,243.78V163.32l35.61,35.61a10.36,10.36,0,1,0,14.65-14.65L383.52,131a10.34,10.34,0,0,0-14.64,0l-53.3,53.29a10.36,10.36,0,1,0,14.64,14.65l35.62-35.61v81.14a89.21,89.21,0,0,0-33.33,11.94,131.2,131.2,0,0,0-64.34-24V51.26l59.07,59.06a10.36,10.36,0,1,0,14.64-14.65L265.14,18.93a10.35,10.35,0,0,0-14.65,0L173.74,95.67a10.36,10.36,0,0,0,14.65,14.65l59.07-59.06v181a131.23,131.23,0,0,0-68,24.17A89.34,89.34,0,0,0,143.38,244V183.33L179,218.94a10.36,10.36,0,0,0,14.65-14.64L140.35,151a10.35,10.35,0,0,0-14.65,0L72.41,204.3a10.35,10.35,0,1,0,14.64,14.64l35.62-35.61V244A90.13,90.13,0,0,0,133,423.7c1.73,0,3.42-.16,5.13-.26a131.88,131.88,0,0,0,235.68,0c1.71.1,3.4.26,5.13.26a90.12,90.12,0,0,0,7.59-179.92ZM256,472.2A108.25,108.25,0,1,1,364.25,364,108.37,108.37,0,0,1,256,472.2Z"/><path d="M298.55,374.19a37.59,37.59,0,0,0-11.43-10.72c-4.3-2.77-9.76-4.88-16.63-6.38V305.52a20.13,20.13,0,0,1,5,2.43,33.1,33.1,0,0,1,7.12,6.46,23.46,23.46,0,0,1,4.15,7.46,38.52,38.52,0,0,1,1.75,8.46c.61,5.3,4.44,6.8,7.53,6.49,1.67-.21,5.67-1.31,7-8-.27-11-3.85-20-10.62-26.69A41,41,0,0,0,270.49,291v-8.23a8.28,8.28,0,0,0-2.93-6.39,8.4,8.4,0,0,0-11.25.25,8.16,8.16,0,0,0-2.48,6.14v7.28a59.43,59.43,0,0,0-15.24,3.41,42.25,42.25,0,0,0-14.76,9,38.13,38.13,0,0,0-9.11,13.42,35.82,35.82,0,0,0-2.29,16.48,38.9,38.9,0,0,0,13.27,25.76c7.28,6.09,17,9.82,28.13,11l0,49.28c-9.09-.82-16.22-3.14-21.23-6.94-5.72-4.31-9.23-9.48-10.65-15.39-.37-2.94-2.58-6.14-7.48-6.27a6.5,6.5,0,0,0-5.76,2.14,6.15,6.15,0,0,0-1.12,5.64c2.08,11.22,7.86,19.91,17.16,25.86,8.15,5.13,17.92,8.16,29.08,9v6.65a7.87,7.87,0,0,0,2.69,6.38,8.58,8.58,0,0,0,5.44,2,9,9,0,0,0,5.44-1.9,7.73,7.73,0,0,0,3.06-6.48v-6.85c10.71-1.38,18.85-5.08,24.23-11,5.91-6.52,9.18-13.72,9.71-21.29a44.83,44.83,0,0,0-.7-12.7A35,35,0,0,0,298.55,374.19Zm-19.63,41.45a26,26,0,0,1-8.43,2.57V371.77c6.42,1.77,11.11,4.4,14.24,8,3.82,4.43,5.57,10.92,5.38,19.82v.08a15.81,15.81,0,0,1-1,4.73,18.84,18.84,0,0,1-3.18,5.87A23.48,23.48,0,0,1,278.92,415.64Zm-45.37-70.48a17.27,17.27,0,0,1-4.29-6.24,31.54,31.54,0,0,1-1.61-7.26,24.85,24.85,0,0,1,7.12-19.07c4.43-4.62,10.84-7.46,19.06-8.45v50.63a41.46,41.46,0,0,1-11.08-3.4A36.88,36.88,0,0,1,233.55,345.16Z"/></svg>
